<?xml version="1.0" standalone="no"?>
<!DOCTYPE svg PUBLIC "-//W3C//DTD SVG 20010904//EN"
 "http://www.w3.org/TR/2001/REC-SVG-20010904/DTD/svg10.dtd">
<svg version="1.0" xmlns="http://www.w3.org/2000/svg"
 width="32.000000pt" height="32.000000pt" viewBox="0 0 32.000000 32.000000"
 preserveAspectRatio="xMidYMid meet">

<g transform="translate(0.000000,32.000000) scale(0.100000,-0.100000)"
fill="white" stroke="none">
<path d="M155 306 c-11 -8 -21 -31 -24 -57 -5 -36 -10 -45 -28 -47 -32 -5 -32
-49 0 -54 20 -3 22 -9 25 -76 3 -69 4 -72 27 -72 23 0 24 3 27 72 3 68 5 73
28 78 16 4 26 14 28 28 3 18 -1 22 -23 22 -14 0 -28 6 -31 14 -8 22 14 56 36
56 15 0 20 7 20 25 0 22 -4 25 -33 25 -18 0 -42 -6 -52 -14z"/>
</g>
</svg>
